<?xml version="1.0" standalone="no"?>
<!DOCTYPE svg PUBLIC "-//W3C//DTD SVG 20010904//EN"
 "http://www.w3.org/TR/2001/REC-SVG-20010904/DTD/svg10.dtd">
<svg version="1.0" xmlns="http://www.w3.org/2000/svg"
 width="76.000000pt" height="46.000000pt" viewBox="0 0 76.000000 46.000000"
 preserveAspectRatio="xMidYMid meet">

<g transform="translate(0.000000,46.000000) scale(0.100000,-0.100000)"
fill="#000000" stroke="none">
<path d="M390 319 c-96 -4 -187 -7 -201 -8 -18 -1 -34 -14 -57 -46 l-31 -44
67 -62 67 -61 60 7 c129 14 260 47 318 78 75 41 73 61 -6 65 -53 3 -56 4 -47
23 6 11 21 19 36 19 18 0 25 5 22 16 -4 21 -11 21 -228 13z m130 -49 c-7 -14
-21 -20 -43 -20 -18 0 -62 -3 -99 -7 -60 -5 -68 -4 -68 11 0 25 36 35 133 35
85 1 87 0 77 -19z m-285 -30 c3 -5 -1 -10 -9 -10 -8 0 -18 5 -21 10 -3 6 1 10
9 10 8 0 18 -4 21 -10z m302 -26 c-4 -4 -25 -8 -48 -9 -26 -2 -36 1 -28 6 16
10 86 12 76 3z m-245 -42 c3 -27 0 -34 -19 -38 -17 -5 -35 3 -68 31 -25 20
-45 37 -45 39 0 1 29 2 64 2 l64 -1 4 -33z m48 24 c0 -3 -4 -8 -10 -11 -5 -3
-10 -1 -10 4 0 6 5 11 10 11 6 0 10 -2 10 -4z m60 -30 c-8 -7 -28 -17 -45 -21
-35 -8 -32 -3 10 19 37 20 54 21 35 2z"/>
</g>
</svg>
